# xmcd
#
# Track frame offsets:
#	180
#	18233
#	33318
#	46091
#	65270
#	82613
#	99405
#	119639
#	134957
#	149581
#	166832
#	182865
#	198565
#	212788
#	224711
#
# Disc length: 3244 seconds
#
# Revision: 2
# Processed by: cddbd v1.4PL0 Copyright (c) Steve Scherf et al.
# Submitted via: EasyCDDAExtractor 5.0.7
#
DISCID=e00caa0f
DTITLE=Acoustic Sound Orchestra - Hits For You Vol 1
DYEAR=1900
DGENRE=Instrumental
TTITLE0=Chris De Burg - The Lady In Red
TTITLE1=Elton John, Gary Osborne - Blue Eyes
TTITLE2=Francis Lai, Pierre Louys - Bilitis
TTITLE3=Andre Lloyd Webber - The Phantom Of The Opera
TTITLE4=Ferry Janoska - A Day Without You
TTITLE5=Traditional - Le Reve
TTITLE6=Claude Francais - My Way
TTITLE7=Hannes Grof - Summer Love
TTITLE8=John Lennon, Paul McCartney - Yesterday
TTITLE9=M. Garry, M. Gouty - Sempre, Sempre
TTITLE10=Ferry Janoska - Melodie Der Sehnsucht
TTITLE11=Andrew Lloyd Webber - I Don't Know How To Love Him
TTITLE12=Ricky Carlos - Together Again
TTITLE13=Roy Turk - Lou Handman - Are You Lonesome Tonight
TTITLE14=Adi Rinner - Isla Romantica
EXTD=
EXTT0=
EXTT1=
EXTT2=
EXTT3=
EXTT4=
EXTT5=
EXTT6=
EXTT7=
EXTT8=
EXTT9=
EXTT10=
EXTT11=
EXTT12=
EXTT13=
EXTT14=
PLAYORDER=
